<svg width="40" height="11" viewBox="0 0 40 11" xmlns="http://www.w3.org/2000/svg"><g fill="#000" fill-rule="evenodd"><path d="M37.714 8H40v2.286h-2.286zM32.479 8.03c.046.352.088.473.264.631.159.143.325.256.616.26.291.002.793-.286.793-.699a.758.758 0 0 0-.129-.4.607.607 0 0 0-.152-.119s-.599-.236-.953-.387c-.588-.222-1.302-.493-1.67-.82-.37-.326-.487-.82-.53-1.353-.042-.533.208-1.209.718-1.574.51-.366 1.155-.592 1.923-.592.788 0 1.396.195 1.849.541.43.433.662.976.704 1.715h-1.658c-.027-.635-.354-.933-.982-.894-.184.03-.722.048-.705.623.017.576.82.761 1.32.903.5.14 1.235.49 1.585.811.338.347.528.82.528 1.354 0 .706-.24 1.24-.704 1.624-.5.429-1.135.632-1.937.632-.787 0-1.422-.197-1.848-.632-.426-.435-.759-.906-.792-1.624h1.76z"/><path d="M22.533 6.677c0-1.043.318-1.934.968-2.617.623-.73 1.428-1.083 2.376-1.083.48 0 .876.087 1.233.271.321.162.653.445.968.812v-.812h1.849v6.767h-1.849v-.902c-.31.4-.656.698-1.056.902-.345.176-.775.27-1.232.27-.971 0-1.743-.334-2.377-.992-.577-.683-.88-1.54-.88-2.616zm3.844 2.134c.997 0 1.806-.949 1.806-2.12 0-1.17-.809-2.12-1.806-2.12s-1.806.95-1.806 2.12c0 1.171.809 2.12 1.806 2.12z" fill-rule="nonzero"/><path d="M18.572 3.158h.704v-.361c.026-.91.241-1.58.704-1.985.394-.425 1.068-.631 2.025-.631-.021 0 0 1.741 0 1.741s-.528-.012-.704.244c-.118.17-.176.38-.176.63v.362h.88v1.624h-.88v5.233h-1.849V4.782h-.704V3.158z"/><path d="M10.386 6.677c0-1.043.318-1.934.969-2.617.622-.73 1.428-1.083 2.376-1.083.48 0 .875.087 1.232.271.322.162.654.445.968.812v-.812h1.849v6.767h-1.848v-.902c-.31.4-.656.698-1.056.902-.345.176-.776.27-1.233.27-.97 0-1.743-.334-2.376-.992-.577-.683-.88-1.54-.88-2.616zm3.705 2.222c.998 0 1.806-.95 1.806-2.12 0-1.171-.808-2.12-1.806-2.12-.997 0-1.805.949-1.805 2.12 0 1.17.808 2.12 1.805 2.12z" fill-rule="nonzero"/><path d="M0 5.143c0-.949.215-1.829.616-2.617A5.184 5.184 0 0 1 2.465.632 4.93 4.93 0 0 1 4.929 0c.81 0 1.54.165 2.2.451.662.286 1.272.849 1.76 1.444L7.395 3.068c-.371-.397-.735-.708-1.145-.902-.336-.187-.765-.283-1.232-.271-.869-.012-1.579.303-2.113.902-.608.662-.894 1.446-.88 2.346-.013.949.28 1.721.88 2.346.57.64 1.287.957 2.113.993 2.302-.04 2.806-1.766 2.817-2.257H5.105V4.511h4.841v.541c0 .779-.114 1.454-.352 2.076a4.923 4.923 0 0 1-1.056 1.624c-.996 1.024-2.186 1.534-3.61 1.534a5.616 5.616 0 0 1-1.936-.361c-.622-.23-1.137-.656-1.583-1.083A6.529 6.529 0 0 1 .352 7.218 6.339 6.339 0 0 1 0 5.143z"/></g></svg>
